<?xml version="1.0" encoding="UTF-8" standalone="no"?>
<!DOCTYPE svg PUBLIC "-//W3C//DTD SVG 1.1//EN"
 "http://www.w3.org/Graphics/SVG/1.1/DTD/svg11.dtd">
<!-- Generated by graphviz version 2.43.0 (0)
 -->
<!-- Title: G Pages: 1 -->
<svg width="1181pt" height="692pt"
 viewBox="0.00 0.00 1180.70 692.00" xmlns="http://www.w3.org/2000/svg" xmlns:xlink="http://www.w3.org/1999/xlink">
<g id="graph0" class="graph" transform="scale(1 1) rotate(0) translate(4 688)">
<title>G</title>
<polygon fill="white" stroke="transparent" points="-4,4 -4,-688 1176.7,-688 1176.7,4 -4,4"/>
<!-- CFG -->
<g id="node1" class="node">
<title>CFG</title>
<ellipse fill="none" stroke="black" cx="793.13" cy="-666" rx="31.4" ry="18"/>
<text text-anchor="middle" x="793.13" y="-662.3" font-family="Times,serif" font-size="14.00">CFG</text>
</g>
<!--  &#160;%1 = alloca i32, align 4| VALUE = 0x7ffd3c13637c -->
<g id="node2" class="node">
<title> &#160;%1 = alloca i32, align 4| VALUE = 0x7ffd3c13637c</title>
<ellipse fill="none" stroke="black" cx="793.13" cy="-594" rx="252.66" ry="18"/>
<text text-anchor="middle" x="793.13" y="-590.3" font-family="Times,serif" font-size="14.00"> &#160;%1 = alloca i32, align 4| VALUE = 0x7ffd3c13637c</text>
</g>
<!-- CFG&#45;&gt; &#160;%1 = alloca i32, align 4| VALUE = 0x7ffd3c13637c -->
<g id="edge1" class="edge">
<title>CFG&#45;&gt; &#160;%1 = alloca i32, align 4| VALUE = 0x7ffd3c13637c</title>
<path fill="none" stroke="black" d="M793.13,-647.59C793.13,-639.94 793.13,-630.89 793.13,-622.43"/>
<polygon fill="black" stroke="black" points="796.63,-622.17 793.13,-612.17 789.63,-622.17 796.63,-622.17"/>
<text text-anchor="middle" x="782.63" y="-626.3" font-family="Times,serif" font-size="14.00">cfg</text>
</g>
<!--  &#160;%2 = alloca i32, align 4| VALUE = 0x7ffd3c136378 -->
<g id="node3" class="node">
<title> &#160;%2 = alloca i32, align 4| VALUE = 0x7ffd3c136378</title>
<ellipse fill="none" stroke="black" cx="793.13" cy="-522" rx="253.46" ry="18"/>
<text text-anchor="middle" x="793.13" y="-518.3" font-family="Times,serif" font-size="14.00"> &#160;%2 = alloca i32, align 4| VALUE = 0x7ffd3c136378</text>
</g>
<!--  &#160;%1 = alloca i32, align 4| VALUE = 0x7ffd3c13637c&#45;&gt; &#160;%2 = alloca i32, align 4| VALUE = 0x7ffd3c136378 -->
<g id="edge2" class="edge">
<title> &#160;%1 = alloca i32, align 4| VALUE = 0x7ffd3c13637c&#45;&gt; &#160;%2 = alloca i32, align 4| VALUE = 0x7ffd3c136378</title>
<path fill="none" stroke="black" d="M793.13,-575.59C793.13,-567.94 793.13,-558.89 793.13,-550.43"/>
<polygon fill="black" stroke="black" points="796.63,-550.17 793.13,-540.17 789.63,-550.17 796.63,-550.17"/>
<text text-anchor="middle" x="782.63" y="-554.3" font-family="Times,serif" font-size="14.00">cfg</text>
</g>
<!--  &#160;store i32 9, ptr %1, align 4, !tbaa !5| VALUE = (nil) -->
<g id="node4" class="node">
<title> &#160;store i32 9, ptr %1, align 4, !tbaa !5| VALUE = (nil)</title>
<ellipse fill="none" stroke="black" cx="793.13" cy="-450" rx="254.55" ry="18"/>
<text text-anchor="middle" x="793.13" y="-446.3" font-family="Times,serif" font-size="14.00"> &#160;store i32 9, ptr %1, align 4, !tbaa !5| VALUE = (nil)</text>
</g>
<!--  &#160;%1 = alloca i32, align 4| VALUE = 0x7ffd3c13637c&#45;&gt; &#160;store i32 9, ptr %1, align 4, !tbaa !5| VALUE = (nil) -->
<g id="edge10" class="edge">
<title> &#160;%1 = alloca i32, align 4| VALUE = 0x7ffd3c13637c&#45;&gt; &#160;store i32 9, ptr %1, align 4, !tbaa !5| VALUE = (nil)</title>
<path fill="none" stroke="black" d="M711.68,-611.09C627.74,-623.39 499.82,-626.28 431.57,-549 382.36,-493.29 449.03,-467.58 537.98,-456.19"/>
<polygon fill="black" stroke="black" points="538.57,-459.65 548.07,-454.97 537.73,-452.7 538.57,-459.65"/>
<text text-anchor="middle" x="379.57" y="-518.3" font-family="Times,serif" font-size="14.00">user</text>
</g>
<!--  &#160;%3 = load i32, ptr %1, align 4, !tbaa !5| VALUE = 9 -->
<g id="node6" class="node">
<title> &#160;%3 = load i32, ptr %1, align 4, !tbaa !5| VALUE = 9</title>
<ellipse fill="none" stroke="black" cx="793.13" cy="-306" rx="257.25" ry="18"/>
<text text-anchor="middle" x="793.13" y="-302.3" font-family="Times,serif" font-size="14.00"> &#160;%3 = load i32, ptr %1, align 4, !tbaa !5| VALUE = 9</text>
</g>
<!--  &#160;%1 = alloca i32, align 4| VALUE = 0x7ffd3c13637c&#45;&gt; &#160;%3 = load i32, ptr %1, align 4, !tbaa !5| VALUE = 9 -->
<g id="edge12" class="edge">
<title> &#160;%1 = alloca i32, align 4| VALUE = 0x7ffd3c13637c&#45;&gt; &#160;%3 = load i32, ptr %1, align 4, !tbaa !5| VALUE = 9</title>
<path fill="none" stroke="black" d="M711.68,-611.09C627.74,-623.39 499.82,-626.28 431.57,-549 373.31,-483.04 373.31,-416.96 431.57,-351 497.16,-276.74 617.84,-276.5 701.64,-287.51"/>
<polygon fill="black" stroke="black" points="701.29,-291 711.68,-288.91 702.25,-284.06 701.29,-291"/>
<text text-anchor="middle" x="379.57" y="-361.3" font-family="Times,serif" font-size="14.00">user</text>
</g>
<!--  &#160;%2 = alloca i32, align 4| VALUE = 0x7ffd3c136378&#45;&gt; &#160;store i32 9, ptr %1, align 4, !tbaa !5| VALUE = (nil) -->
<g id="edge3" class="edge">
<title> &#160;%2 = alloca i32, align 4| VALUE = 0x7ffd3c136378&#45;&gt; &#160;store i32 9, ptr %1, align 4, !tbaa !5| VALUE = (nil)</title>
<path fill="none" stroke="black" d="M793.13,-503.59C793.13,-495.94 793.13,-486.89 793.13,-478.43"/>
<polygon fill="black" stroke="black" points="796.63,-478.17 793.13,-468.17 789.63,-478.17 796.63,-478.17"/>
<text text-anchor="middle" x="782.63" y="-482.3" font-family="Times,serif" font-size="14.00">cfg</text>
</g>
<!--  &#160;store i32 8, ptr %2, align 4, !tbaa !5| VALUE = (nil) -->
<g id="node5" class="node">
<title> &#160;store i32 8, ptr %2, align 4, !tbaa !5| VALUE = (nil)</title>
<ellipse fill="none" stroke="black" cx="793.13" cy="-378" rx="254.55" ry="18"/>
<text text-anchor="middle" x="793.13" y="-374.3" font-family="Times,serif" font-size="14.00"> &#160;store i32 8, ptr %2, align 4, !tbaa !5| VALUE = (nil)</text>
</g>
<!--  &#160;%2 = alloca i32, align 4| VALUE = 0x7ffd3c136378&#45;&gt; &#160;store i32 8, ptr %2, align 4, !tbaa !5| VALUE = (nil) -->
<g id="edge11" class="edge">
<title> &#160;%2 = alloca i32, align 4| VALUE = 0x7ffd3c136378&#45;&gt; &#160;store i32 8, ptr %2, align 4, !tbaa !5| VALUE = (nil)</title>
<path fill="none" stroke="black" d="M711.68,-539.09C627.74,-551.39 499.82,-554.28 431.57,-477 382.36,-421.29 449.03,-395.58 537.98,-384.19"/>
<polygon fill="black" stroke="black" points="538.57,-387.65 548.07,-382.97 537.73,-380.7 538.57,-387.65"/>
<text text-anchor="middle" x="379.57" y="-443.3" font-family="Times,serif" font-size="14.00">user</text>
</g>
<!--  &#160;%4 = load i32, ptr %2, align 4, !tbaa !5| VALUE = 8 -->
<g id="node7" class="node">
<title> &#160;%4 = load i32, ptr %2, align 4, !tbaa !5| VALUE = 8</title>
<ellipse fill="none" stroke="black" cx="793.13" cy="-234" rx="257.25" ry="18"/>
<text text-anchor="middle" x="793.13" y="-230.3" font-family="Times,serif" font-size="14.00"> &#160;%4 = load i32, ptr %2, align 4, !tbaa !5| VALUE = 8</text>
</g>
<!--  &#160;%2 = alloca i32, align 4| VALUE = 0x7ffd3c136378&#45;&gt; &#160;%4 = load i32, ptr %2, align 4, !tbaa !5| VALUE = 8 -->
<g id="edge13" class="edge">
<title> &#160;%2 = alloca i32, align 4| VALUE = 0x7ffd3c136378&#45;&gt; &#160;%4 = load i32, ptr %2, align 4, !tbaa !5| VALUE = 8</title>
<path fill="none" stroke="black" d="M711.68,-539.09C627.74,-551.39 499.82,-554.28 431.57,-477 373.31,-411.04 373.31,-344.96 431.57,-279 497.16,-204.74 617.84,-204.5 701.64,-215.51"/>
<polygon fill="black" stroke="black" points="701.29,-219 711.68,-216.91 702.25,-212.06 701.29,-219"/>
<text text-anchor="middle" x="379.57" y="-389.3" font-family="Times,serif" font-size="14.00">user</text>
</g>
<!--  &#160;store i32 9, ptr %1, align 4, !tbaa !5| VALUE = (nil)&#45;&gt; &#160;store i32 8, ptr %2, align 4, !tbaa !5| VALUE = (nil) -->
<g id="edge4" class="edge">
<title> &#160;store i32 9, ptr %1, align 4, !tbaa !5| VALUE = (nil)&#45;&gt; &#160;store i32 8, ptr %2, align 4, !tbaa !5| VALUE = (nil)</title>
<path fill="none" stroke="black" d="M793.13,-431.59C793.13,-423.94 793.13,-414.89 793.13,-406.43"/>
<polygon fill="black" stroke="black" points="796.63,-406.17 793.13,-396.17 789.63,-406.17 796.63,-406.17"/>
<text text-anchor="middle" x="782.63" y="-410.3" font-family="Times,serif" font-size="14.00">cfg</text>
</g>
<!--  &#160;store i32 8, ptr %2, align 4, !tbaa !5| VALUE = (nil)&#45;&gt; &#160;%3 = load i32, ptr %1, align 4, !tbaa !5| VALUE = 9 -->
<g id="edge5" class="edge">
<title> &#160;store i32 8, ptr %2, align 4, !tbaa !5| VALUE = (nil)&#45;&gt; &#160;%3 = load i32, ptr %1, align 4, !tbaa !5| VALUE = 9</title>
<path fill="none" stroke="black" d="M793.13,-359.59C793.13,-351.94 793.13,-342.89 793.13,-334.43"/>
<polygon fill="black" stroke="black" points="796.63,-334.17 793.13,-324.17 789.63,-334.17 796.63,-334.17"/>
<text text-anchor="middle" x="782.63" y="-338.3" font-family="Times,serif" font-size="14.00">cfg</text>
</g>
<!--  &#160;%3 = load i32, ptr %1, align 4, !tbaa !5| VALUE = 9&#45;&gt; &#160;%4 = load i32, ptr %2, align 4, !tbaa !5| VALUE = 8 -->
<g id="edge6" class="edge">
<title> &#160;%3 = load i32, ptr %1, align 4, !tbaa !5| VALUE = 9&#45;&gt; &#160;%4 = load i32, ptr %2, align 4, !tbaa !5| VALUE = 8</title>
<path fill="none" stroke="black" d="M793.13,-287.59C793.13,-279.94 793.13,-270.89 793.13,-262.43"/>
<polygon fill="black" stroke="black" points="796.63,-262.17 793.13,-252.17 789.63,-262.17 796.63,-262.17"/>
<text text-anchor="middle" x="782.63" y="-266.3" font-family="Times,serif" font-size="14.00">cfg</text>
</g>
<!--  &#160;%5 = add nsw i32 %3, %4| VALUE = 17 -->
<g id="node8" class="node">
<title> &#160;%5 = add nsw i32 %3, %4| VALUE = 17</title>
<ellipse fill="none" stroke="black" cx="793.13" cy="-162" rx="202.26" ry="18"/>
<text text-anchor="middle" x="793.13" y="-158.3" font-family="Times,serif" font-size="14.00"> &#160;%5 = add nsw i32 %3, %4| VALUE = 17</text>
</g>
<!--  &#160;%3 = load i32, ptr %1, align 4, !tbaa !5| VALUE = 9&#45;&gt; &#160;%5 = add nsw i32 %3, %4| VALUE = 17 -->
<g id="edge14" class="edge">
<title> &#160;%3 = load i32, ptr %1, align 4, !tbaa !5| VALUE = 9&#45;&gt; &#160;%5 = add nsw i32 %3, %4| VALUE = 17</title>
<path fill="none" stroke="black" d="M711.68,-323.09C627.74,-335.39 499.82,-338.28 431.57,-261 374.64,-196.55 472.79,-172.26 581.1,-163.84"/>
<polygon fill="black" stroke="black" points="581.55,-167.31 591.27,-163.09 581.04,-160.33 581.55,-167.31"/>
<text text-anchor="middle" x="379.57" y="-230.3" font-family="Times,serif" font-size="14.00">user</text>
</g>
<!--  &#160;%4 = load i32, ptr %2, align 4, !tbaa !5| VALUE = 8&#45;&gt; &#160;%5 = add nsw i32 %3, %4| VALUE = 17 -->
<g id="edge7" class="edge">
<title> &#160;%4 = load i32, ptr %2, align 4, !tbaa !5| VALUE = 8&#45;&gt; &#160;%5 = add nsw i32 %3, %4| VALUE = 17</title>
<path fill="none" stroke="black" d="M808.07,-215.86C809.31,-213.65 810.38,-211.34 811.13,-209 813.43,-201.88 813.97,-198.22 811.38,-189.64"/>
<polygon fill="black" stroke="black" points="814.66,-188.44 808.07,-180.14 808.05,-190.74 814.66,-188.44"/>
<text text-anchor="middle" x="803.63" y="-194.3" font-family="Times,serif" font-size="14.00">cfg</text>
</g>
<!--  &#160;%4 = load i32, ptr %2, align 4, !tbaa !5| VALUE = 8&#45;&gt; &#160;%5 = add nsw i32 %3, %4| VALUE = 17 -->
<g id="edge15" class="edge">
<title> &#160;%4 = load i32, ptr %2, align 4, !tbaa !5| VALUE = 8&#45;&gt; &#160;%5 = add nsw i32 %3, %4| VALUE = 17</title>
<path fill="none" stroke="black" d="M793.13,-215.59C793.13,-207.94 793.13,-198.89 793.13,-190.43"/>
<polygon fill="black" stroke="black" points="796.63,-190.17 793.13,-180.17 789.63,-190.17 796.63,-190.17"/>
<text text-anchor="middle" x="782.63" y="-194.3" font-family="Times,serif" font-size="14.00">user</text>
</g>
<!--  &#160;%6 = call i32 (ptr, ...) @printf(ptr noundef @.str, i32 noundef %5) -->
<g id="node9" class="node">
<title> &#160;%6 = call i32 (ptr, ...) @printf(ptr noundef @.str, i32 noundef %5)</title>
<ellipse fill="none" stroke="black" cx="793.13" cy="-90" rx="321.94" ry="18"/>
<text text-anchor="middle" x="793.13" y="-86.3" font-family="Times,serif" font-size="14.00"> &#160;%6 = call i32 (ptr, ...) @printf(ptr noundef @.str, i32 noundef %5)</text>
</g>
<!--  &#160;%5 = add nsw i32 %3, %4| VALUE = 17&#45;&gt; &#160;%6 = call i32 (ptr, ...) @printf(ptr noundef @.str, i32 noundef %5) -->
<g id="edge8" class="edge">
<title> &#160;%5 = add nsw i32 %3, %4| VALUE = 17&#45;&gt; &#160;%6 = call i32 (ptr, ...) @printf(ptr noundef @.str, i32 noundef %5)</title>
<path fill="none" stroke="black" d="M793.13,-143.59C793.13,-135.94 793.13,-126.89 793.13,-118.43"/>
<polygon fill="black" stroke="black" points="796.63,-118.17 793.13,-108.17 789.63,-118.17 796.63,-118.17"/>
<text text-anchor="middle" x="782.63" y="-122.3" font-family="Times,serif" font-size="14.00">cfg</text>
</g>
<!--  &#160;%6 = call i32 (ptr, ...) @printf(ptr noundef @.str, i32 noundef %5)| VALUE = 3 -->
<g id="node10" class="node">
<title> &#160;%6 = call i32 (ptr, ...) @printf(ptr noundef @.str, i32 noundef %5)| VALUE = 3</title>
<ellipse fill="none" stroke="black" cx="793.13" cy="-18" rx="379.63" ry="18"/>
<text text-anchor="middle" x="793.13" y="-14.3" font-family="Times,serif" font-size="14.00"> &#160;%6 = call i32 (ptr, ...) @printf(ptr noundef @.str, i32 noundef %5)| VALUE = 3</text>
</g>
<!--  &#160;%5 = add nsw i32 %3, %4| VALUE = 17&#45;&gt; &#160;%6 = call i32 (ptr, ...) @printf(ptr noundef @.str, i32 noundef %5)| VALUE = 3 -->
<g id="edge16" class="edge">
<title> &#160;%5 = add nsw i32 %3, %4| VALUE = 17&#45;&gt; &#160;%6 = call i32 (ptr, ...) @printf(ptr noundef @.str, i32 noundef %5)| VALUE = 3</title>
<path fill="none" stroke="black" d="M714.74,-178.64C630.89,-191.31 500.66,-195.23 431.57,-117 391.1,-71.18 429,-45.66 493.21,-31.71"/>
<polygon fill="black" stroke="black" points="494.2,-35.08 503.3,-29.65 492.8,-28.22 494.2,-35.08"/>
<text text-anchor="middle" x="379.57" y="-86.3" font-family="Times,serif" font-size="14.00">user</text>
</g>
<!--  &#160;%6 = call i32 (ptr, ...) @printf(ptr noundef @.str, i32 noundef %5)&#45;&gt; &#160;%6 = call i32 (ptr, ...) @printf(ptr noundef @.str, i32 noundef %5)| VALUE = 3 -->
<g id="edge9" class="edge">
<title> &#160;%6 = call i32 (ptr, ...) @printf(ptr noundef @.str, i32 noundef %5)&#45;&gt; &#160;%6 = call i32 (ptr, ...) @printf(ptr noundef @.str, i32 noundef %5)| VALUE = 3</title>
<path fill="none" stroke="black" d="M793.13,-71.59C793.13,-63.94 793.13,-54.89 793.13,-46.43"/>
<polygon fill="black" stroke="black" points="796.63,-46.17 793.13,-36.17 789.63,-46.17 796.63,-46.17"/>
<text text-anchor="middle" x="782.63" y="-50.3" font-family="Times,serif" font-size="14.00">cfg</text>
</g>
</g>
</svg>
